<mxfile host="app.diagrams.net" agent="Mozilla/5.0 (Windows NT 10.0; Win64; x64) AppleWebKit/537.36 (KHTML, like Gecko) Chrome/131.0.0.0 Safari/537.36 Edg/131.0.0.0" version="24.8.6">
  <diagram name="Page-1" id="YjxeK9bLciFAWOQJMdaE">
    <mxGraphModel dx="830" dy="814" grid="1" gridSize="10" guides="1" tooltips="1" connect="1" arrows="1" fold="1" page="0" pageScale="1" pageWidth="850" pageHeight="1100" math="0" shadow="0">
      <root>
        <mxCell id="0" />
        <mxCell id="1" parent="0" />
        <mxCell id="VmuarMkctPneKjOc8SRD-7" value="" style="shape=umlLifeline;perimeter=lifelinePerimeter;whiteSpace=wrap;html=1;container=1;dropTarget=0;collapsible=0;recursiveResize=0;outlineConnect=0;portConstraint=eastwest;newEdgeStyle={&quot;curved&quot;:0,&quot;rounded&quot;:0};participant=umlActor;" vertex="1" parent="1">
          <mxGeometry x="70" y="50" width="20" height="310" as="geometry" />
        </mxCell>
        <mxCell id="VmuarMkctPneKjOc8SRD-11" value="" style="html=1;points=[[0,0,0,0,5],[0,1,0,0,-5],[1,0,0,0,5],[1,1,0,0,-5]];perimeter=orthogonalPerimeter;outlineConnect=0;targetShapes=umlLifeline;portConstraint=eastwest;newEdgeStyle={&quot;curved&quot;:0,&quot;rounded&quot;:0};" vertex="1" parent="VmuarMkctPneKjOc8SRD-7">
          <mxGeometry x="5" y="70" width="10" height="180" as="geometry" />
        </mxCell>
        <mxCell id="VmuarMkctPneKjOc8SRD-8" value="Frontend" style="shape=umlLifeline;perimeter=lifelinePerimeter;whiteSpace=wrap;html=1;container=1;dropTarget=0;collapsible=0;recursiveResize=0;outlineConnect=0;portConstraint=eastwest;newEdgeStyle={&quot;curved&quot;:0,&quot;rounded&quot;:0};" vertex="1" parent="1">
          <mxGeometry x="270" y="50" width="100" height="310" as="geometry" />
        </mxCell>
        <mxCell id="VmuarMkctPneKjOc8SRD-14" value="" style="html=1;points=[[0,0,0,0,5],[0,1,0,0,-5],[1,0,0,0,5],[1,1,0,0,-5]];perimeter=orthogonalPerimeter;outlineConnect=0;targetShapes=umlLifeline;portConstraint=eastwest;newEdgeStyle={&quot;curved&quot;:0,&quot;rounded&quot;:0};" vertex="1" parent="VmuarMkctPneKjOc8SRD-8">
          <mxGeometry x="45" y="70" width="10" height="180" as="geometry" />
        </mxCell>
        <mxCell id="VmuarMkctPneKjOc8SRD-9" value="Node.js Backend" style="shape=umlLifeline;perimeter=lifelinePerimeter;whiteSpace=wrap;html=1;container=1;dropTarget=0;collapsible=0;recursiveResize=0;outlineConnect=0;portConstraint=eastwest;newEdgeStyle={&quot;curved&quot;:0,&quot;rounded&quot;:0};" vertex="1" parent="1">
          <mxGeometry x="550" y="50" width="100" height="310" as="geometry" />
        </mxCell>
        <mxCell id="VmuarMkctPneKjOc8SRD-19" value="" style="html=1;points=[[0,0,0,0,5],[0,1,0,0,-5],[1,0,0,0,5],[1,1,0,0,-5]];perimeter=orthogonalPerimeter;outlineConnect=0;targetShapes=umlLifeline;portConstraint=eastwest;newEdgeStyle={&quot;curved&quot;:0,&quot;rounded&quot;:0};" vertex="1" parent="VmuarMkctPneKjOc8SRD-9">
          <mxGeometry x="45" y="90" width="10" height="100" as="geometry" />
        </mxCell>
        <mxCell id="VmuarMkctPneKjOc8SRD-10" value="MySQL Database" style="shape=umlLifeline;perimeter=lifelinePerimeter;whiteSpace=wrap;html=1;container=1;dropTarget=0;collapsible=0;recursiveResize=0;outlineConnect=0;portConstraint=eastwest;newEdgeStyle={&quot;curved&quot;:0,&quot;rounded&quot;:0};" vertex="1" parent="1">
          <mxGeometry x="830" y="50" width="100" height="310" as="geometry" />
        </mxCell>
        <mxCell id="VmuarMkctPneKjOc8SRD-20" value="" style="html=1;points=[[0,0,0,0,5],[0,1,0,0,-5],[1,0,0,0,5],[1,1,0,0,-5]];perimeter=orthogonalPerimeter;outlineConnect=0;targetShapes=umlLifeline;portConstraint=eastwest;newEdgeStyle={&quot;curved&quot;:0,&quot;rounded&quot;:0};" vertex="1" parent="VmuarMkctPneKjOc8SRD-10">
          <mxGeometry x="45" y="90" width="10" height="80" as="geometry" />
        </mxCell>
        <mxCell id="VmuarMkctPneKjOc8SRD-12" value="" style="endArrow=open;endFill=1;endSize=12;html=1;rounded=0;" edge="1" parent="1" target="VmuarMkctPneKjOc8SRD-8">
          <mxGeometry width="160" relative="1" as="geometry">
            <mxPoint x="80" y="120" as="sourcePoint" />
            <mxPoint x="240" y="120" as="targetPoint" />
          </mxGeometry>
        </mxCell>
        <mxCell id="VmuarMkctPneKjOc8SRD-13" value="Enters credentials" style="edgeLabel;html=1;align=center;verticalAlign=middle;resizable=0;points=[];" vertex="1" connectable="0" parent="VmuarMkctPneKjOc8SRD-12">
          <mxGeometry x="0.4" y="-1" relative="1" as="geometry">
            <mxPoint x="-32" y="-11" as="offset" />
          </mxGeometry>
        </mxCell>
        <mxCell id="VmuarMkctPneKjOc8SRD-16" value="" style="endArrow=open;endFill=1;endSize=12;html=1;rounded=0;entryX=0.482;entryY=0.231;entryDx=0;entryDy=0;entryPerimeter=0;" edge="1" parent="1" source="VmuarMkctPneKjOc8SRD-14" target="VmuarMkctPneKjOc8SRD-9">
          <mxGeometry width="160" relative="1" as="geometry">
            <mxPoint x="330" y="140" as="sourcePoint" />
            <mxPoint x="570" y="140" as="targetPoint" />
          </mxGeometry>
        </mxCell>
        <mxCell id="VmuarMkctPneKjOc8SRD-17" value="Sends login request" style="edgeLabel;html=1;align=center;verticalAlign=middle;resizable=0;points=[];" vertex="1" connectable="0" parent="VmuarMkctPneKjOc8SRD-16">
          <mxGeometry x="0.4" y="-1" relative="1" as="geometry">
            <mxPoint x="-32" y="-11" as="offset" />
          </mxGeometry>
        </mxCell>
        <mxCell id="VmuarMkctPneKjOc8SRD-21" value="" style="endArrow=open;endFill=1;endSize=12;html=1;rounded=0;entryX=-0.017;entryY=0.251;entryDx=0;entryDy=0;entryPerimeter=0;" edge="1" parent="1" source="VmuarMkctPneKjOc8SRD-19" target="VmuarMkctPneKjOc8SRD-20">
          <mxGeometry width="160" relative="1" as="geometry">
            <mxPoint x="610" y="160" as="sourcePoint" />
            <mxPoint x="870" y="160" as="targetPoint" />
          </mxGeometry>
        </mxCell>
        <mxCell id="VmuarMkctPneKjOc8SRD-22" value="Validates credentials" style="edgeLabel;html=1;align=center;verticalAlign=middle;resizable=0;points=[];" vertex="1" connectable="0" parent="VmuarMkctPneKjOc8SRD-21">
          <mxGeometry x="0.4" y="-1" relative="1" as="geometry">
            <mxPoint x="-32" y="-11" as="offset" />
          </mxGeometry>
        </mxCell>
        <mxCell id="VmuarMkctPneKjOc8SRD-23" value="User details and role" style="endArrow=open;endSize=12;dashed=1;html=1;rounded=0;" edge="1" parent="1" target="VmuarMkctPneKjOc8SRD-19">
          <mxGeometry width="160" relative="1" as="geometry">
            <mxPoint x="879.5" y="220" as="sourcePoint" />
            <mxPoint x="610" y="220" as="targetPoint" />
          </mxGeometry>
        </mxCell>
        <mxCell id="VmuarMkctPneKjOc8SRD-24" value="Authentication token and role" style="endArrow=open;endSize=12;dashed=1;html=1;rounded=0;" edge="1" parent="1" target="VmuarMkctPneKjOc8SRD-14">
          <mxGeometry width="160" relative="1" as="geometry">
            <mxPoint x="595" y="240" as="sourcePoint" />
            <mxPoint x="330" y="240" as="targetPoint" />
          </mxGeometry>
        </mxCell>
        <mxCell id="VmuarMkctPneKjOc8SRD-25" value="Redirection to role-based dashboard" style="endArrow=open;endSize=12;dashed=1;html=1;rounded=0;" edge="1" parent="1" target="VmuarMkctPneKjOc8SRD-11">
          <mxGeometry width="160" relative="1" as="geometry">
            <mxPoint x="320" y="300" as="sourcePoint" />
            <mxPoint x="90" y="300" as="targetPoint" />
          </mxGeometry>
        </mxCell>
        <mxCell id="VmuarMkctPneKjOc8SRD-26" value="5.2.1.1: User Login and Role-Based Dashboard Redirection" style="whiteSpace=wrap;html=1;fontSize=19;fontStyle=1;fontFamily=Lucida Console;" vertex="1" parent="1">
          <mxGeometry x="160" y="-100" width="700" height="60" as="geometry" />
        </mxCell>
        <mxCell id="VmuarMkctPneKjOc8SRD-27" value="" style="shape=umlLifeline;perimeter=lifelinePerimeter;whiteSpace=wrap;html=1;container=1;dropTarget=0;collapsible=0;recursiveResize=0;outlineConnect=0;portConstraint=eastwest;newEdgeStyle={&quot;curved&quot;:0,&quot;rounded&quot;:0};participant=umlActor;" vertex="1" parent="1">
          <mxGeometry x="70" y="801" width="20" height="450" as="geometry" />
        </mxCell>
        <mxCell id="VmuarMkctPneKjOc8SRD-50" value="" style="html=1;points=[[0,0,0,0,5],[0,1,0,0,-5],[1,0,0,0,5],[1,1,0,0,-5]];perimeter=orthogonalPerimeter;outlineConnect=0;targetShapes=umlLifeline;portConstraint=eastwest;newEdgeStyle={&quot;curved&quot;:0,&quot;rounded&quot;:0};" vertex="1" parent="VmuarMkctPneKjOc8SRD-27">
          <mxGeometry x="5" y="360" width="10" height="80" as="geometry" />
        </mxCell>
        <mxCell id="VmuarMkctPneKjOc8SRD-28" value="User" style="text;html=1;align=center;verticalAlign=middle;resizable=0;points=[];autosize=1;strokeColor=none;fillColor=none;" vertex="1" parent="1">
          <mxGeometry x="55" y="20" width="50" height="30" as="geometry" />
        </mxCell>
        <mxCell id="VmuarMkctPneKjOc8SRD-29" value="Organization Admin" style="text;html=1;align=center;verticalAlign=middle;resizable=0;points=[];autosize=1;strokeColor=none;fillColor=none;" vertex="1" parent="1">
          <mxGeometry x="15" y="761" width="130" height="30" as="geometry" />
        </mxCell>
        <mxCell id="VmuarMkctPneKjOc8SRD-30" value="Frontend" style="shape=umlLifeline;perimeter=lifelinePerimeter;whiteSpace=wrap;html=1;container=1;dropTarget=0;collapsible=0;recursiveResize=0;outlineConnect=0;portConstraint=eastwest;newEdgeStyle={&quot;curved&quot;:0,&quot;rounded&quot;:0};" vertex="1" parent="1">
          <mxGeometry x="270" y="801" width="100" height="450" as="geometry" />
        </mxCell>
        <mxCell id="VmuarMkctPneKjOc8SRD-31" value="FastAPI Backend" style="shape=umlLifeline;perimeter=lifelinePerimeter;whiteSpace=wrap;html=1;container=1;dropTarget=0;collapsible=0;recursiveResize=0;outlineConnect=0;portConstraint=eastwest;newEdgeStyle={&quot;curved&quot;:0,&quot;rounded&quot;:0};" vertex="1" parent="1">
          <mxGeometry x="790" y="801" width="100" height="450" as="geometry" />
        </mxCell>
        <mxCell id="VmuarMkctPneKjOc8SRD-36" value="" style="html=1;points=[[0,0,0,0,5],[0,1,0,0,-5],[1,0,0,0,5],[1,1,0,0,-5]];perimeter=orthogonalPerimeter;outlineConnect=0;targetShapes=umlLifeline;portConstraint=eastwest;newEdgeStyle={&quot;curved&quot;:0,&quot;rounded&quot;:0};" vertex="1" parent="VmuarMkctPneKjOc8SRD-31">
          <mxGeometry x="45" y="110" width="10" height="200" as="geometry" />
        </mxCell>
        <mxCell id="VmuarMkctPneKjOc8SRD-32" value="Deep Learning Model" style="shape=umlLifeline;perimeter=lifelinePerimeter;whiteSpace=wrap;html=1;container=1;dropTarget=0;collapsible=0;recursiveResize=0;outlineConnect=0;portConstraint=eastwest;newEdgeStyle={&quot;curved&quot;:0,&quot;rounded&quot;:0};" vertex="1" parent="1">
          <mxGeometry x="1070" y="801" width="100" height="450" as="geometry" />
        </mxCell>
        <mxCell id="VmuarMkctPneKjOc8SRD-39" value="" style="html=1;points=[[0,0,0,0,5],[0,1,0,0,-5],[1,0,0,0,5],[1,1,0,0,-5]];perimeter=orthogonalPerimeter;outlineConnect=0;targetShapes=umlLifeline;portConstraint=eastwest;newEdgeStyle={&quot;curved&quot;:0,&quot;rounded&quot;:0};" vertex="1" parent="VmuarMkctPneKjOc8SRD-32">
          <mxGeometry x="45" y="130" width="10" height="60" as="geometry" />
        </mxCell>
        <mxCell id="VmuarMkctPneKjOc8SRD-33" value="Camera Feed" style="shape=umlLifeline;perimeter=lifelinePerimeter;whiteSpace=wrap;html=1;container=1;dropTarget=0;collapsible=0;recursiveResize=0;outlineConnect=0;portConstraint=eastwest;newEdgeStyle={&quot;curved&quot;:0,&quot;rounded&quot;:0};" vertex="1" parent="1">
          <mxGeometry x="550" y="801" width="100" height="450" as="geometry" />
        </mxCell>
        <mxCell id="VmuarMkctPneKjOc8SRD-35" value="" style="html=1;points=[[0,0,0,0,5],[0,1,0,0,-5],[1,0,0,0,5],[1,1,0,0,-5]];perimeter=orthogonalPerimeter;outlineConnect=0;targetShapes=umlLifeline;portConstraint=eastwest;newEdgeStyle={&quot;curved&quot;:0,&quot;rounded&quot;:0};" vertex="1" parent="VmuarMkctPneKjOc8SRD-33">
          <mxGeometry x="45" y="90" width="10" height="120" as="geometry" />
        </mxCell>
        <mxCell id="VmuarMkctPneKjOc8SRD-34" value="MongoDB" style="shape=umlLifeline;perimeter=lifelinePerimeter;whiteSpace=wrap;html=1;container=1;dropTarget=0;collapsible=0;recursiveResize=0;outlineConnect=0;portConstraint=eastwest;newEdgeStyle={&quot;curved&quot;:0,&quot;rounded&quot;:0};" vertex="1" parent="1">
          <mxGeometry x="1350" y="801" width="100" height="450" as="geometry" />
        </mxCell>
        <mxCell id="VmuarMkctPneKjOc8SRD-44" value="" style="html=1;points=[[0,0,0,0,5],[0,1,0,0,-5],[1,0,0,0,5],[1,1,0,0,-5]];perimeter=orthogonalPerimeter;outlineConnect=0;targetShapes=umlLifeline;portConstraint=eastwest;newEdgeStyle={&quot;curved&quot;:0,&quot;rounded&quot;:0};" vertex="1" parent="VmuarMkctPneKjOc8SRD-34">
          <mxGeometry x="45" y="240" width="10" height="80" as="geometry" />
        </mxCell>
        <mxCell id="VmuarMkctPneKjOc8SRD-37" value="" style="endArrow=open;endFill=1;endSize=12;html=1;rounded=0;" edge="1" parent="1" source="VmuarMkctPneKjOc8SRD-35">
          <mxGeometry width="160" relative="1" as="geometry">
            <mxPoint x="610" y="911" as="sourcePoint" />
            <mxPoint x="839.5" y="911" as="targetPoint" />
          </mxGeometry>
        </mxCell>
        <mxCell id="VmuarMkctPneKjOc8SRD-38" value="Streams video feed" style="edgeLabel;html=1;align=center;verticalAlign=middle;resizable=0;points=[];" vertex="1" connectable="0" parent="VmuarMkctPneKjOc8SRD-37">
          <mxGeometry x="-0.3006" y="4" relative="1" as="geometry">
            <mxPoint x="33" y="-6" as="offset" />
          </mxGeometry>
        </mxCell>
        <mxCell id="VmuarMkctPneKjOc8SRD-40" value="" style="endArrow=open;endFill=1;endSize=12;html=1;rounded=0;" edge="1" parent="1" target="VmuarMkctPneKjOc8SRD-32">
          <mxGeometry width="160" relative="1" as="geometry">
            <mxPoint x="845" y="931" as="sourcePoint" />
            <mxPoint x="1079.5" y="931" as="targetPoint" />
          </mxGeometry>
        </mxCell>
        <mxCell id="VmuarMkctPneKjOc8SRD-41" value="Processes video feed" style="edgeLabel;html=1;align=center;verticalAlign=middle;resizable=0;points=[];" vertex="1" connectable="0" parent="VmuarMkctPneKjOc8SRD-40">
          <mxGeometry x="-0.3006" y="4" relative="1" as="geometry">
            <mxPoint x="33" y="-6" as="offset" />
          </mxGeometry>
        </mxCell>
        <mxCell id="VmuarMkctPneKjOc8SRD-42" value="" style="endArrow=block;dashed=1;endFill=0;endSize=12;html=1;rounded=0;" edge="1" parent="1" target="VmuarMkctPneKjOc8SRD-36">
          <mxGeometry width="160" relative="1" as="geometry">
            <mxPoint x="1119.5" y="991" as="sourcePoint" />
            <mxPoint x="850" y="991" as="targetPoint" />
          </mxGeometry>
        </mxCell>
        <mxCell id="VmuarMkctPneKjOc8SRD-43" value="Anomaly detection result" style="edgeLabel;html=1;align=center;verticalAlign=middle;resizable=0;points=[];" vertex="1" connectable="0" parent="VmuarMkctPneKjOc8SRD-42">
          <mxGeometry x="0.1625" y="3" relative="1" as="geometry">
            <mxPoint x="23" y="-13" as="offset" />
          </mxGeometry>
        </mxCell>
        <mxCell id="VmuarMkctPneKjOc8SRD-45" value="" style="endArrow=open;endFill=1;endSize=12;html=1;rounded=0;" edge="1" parent="1" source="VmuarMkctPneKjOc8SRD-36">
          <mxGeometry width="160" relative="1" as="geometry">
            <mxPoint x="850" y="1041" as="sourcePoint" />
            <mxPoint x="1397.2500000000005" y="1041" as="targetPoint" />
          </mxGeometry>
        </mxCell>
        <mxCell id="VmuarMkctPneKjOc8SRD-46" value="Log anomaly" style="edgeLabel;html=1;align=center;verticalAlign=middle;resizable=0;points=[];" vertex="1" connectable="0" parent="VmuarMkctPneKjOc8SRD-45">
          <mxGeometry x="-0.3006" y="4" relative="1" as="geometry">
            <mxPoint x="33" y="-6" as="offset" />
          </mxGeometry>
        </mxCell>
        <mxCell id="VmuarMkctPneKjOc8SRD-47" value="" style="endArrow=block;dashed=1;endFill=0;endSize=12;html=1;rounded=0;" edge="1" parent="1" target="VmuarMkctPneKjOc8SRD-48">
          <mxGeometry width="160" relative="1" as="geometry">
            <mxPoint x="839.5" y="1111" as="sourcePoint" />
            <mxPoint x="380" y="1111" as="targetPoint" />
          </mxGeometry>
        </mxCell>
        <mxCell id="VmuarMkctPneKjOc8SRD-49" value="Anomaly notification" style="edgeLabel;html=1;align=center;verticalAlign=middle;resizable=0;points=[];" vertex="1" connectable="0" parent="VmuarMkctPneKjOc8SRD-47">
          <mxGeometry x="0.4142" y="5" relative="1" as="geometry">
            <mxPoint as="offset" />
          </mxGeometry>
        </mxCell>
        <mxCell id="VmuarMkctPneKjOc8SRD-48" value="" style="html=1;points=[[0,0,0,0,5],[0,1,0,0,-5],[1,0,0,0,5],[1,1,0,0,-5]];perimeter=orthogonalPerimeter;outlineConnect=0;targetShapes=umlLifeline;portConstraint=eastwest;newEdgeStyle={&quot;curved&quot;:0,&quot;rounded&quot;:0};" vertex="1" parent="1">
          <mxGeometry x="315" y="1111" width="10" height="80" as="geometry" />
        </mxCell>
        <mxCell id="VmuarMkctPneKjOc8SRD-51" value="" style="endArrow=block;dashed=1;endFill=0;endSize=12;html=1;rounded=0;exitX=0;exitY=1;exitDx=0;exitDy=-5;exitPerimeter=0;" edge="1" parent="1" target="VmuarMkctPneKjOc8SRD-50">
          <mxGeometry width="160" relative="1" as="geometry">
            <mxPoint x="315" y="1191" as="sourcePoint" />
            <mxPoint x="90" y="1191" as="targetPoint" />
          </mxGeometry>
        </mxCell>
        <mxCell id="VmuarMkctPneKjOc8SRD-52" value="Anomaly alert" style="edgeLabel;html=1;align=center;verticalAlign=middle;resizable=0;points=[];" vertex="1" connectable="0" parent="VmuarMkctPneKjOc8SRD-51">
          <mxGeometry x="0.3485" y="-1" relative="1" as="geometry">
            <mxPoint x="40" y="-9" as="offset" />
          </mxGeometry>
        </mxCell>
        <mxCell id="VmuarMkctPneKjOc8SRD-53" value="5.2.1.2: Anomaly Detection with Real-Time Alerts" style="whiteSpace=wrap;html=1;fontSize=19;fontStyle=1;fontFamily=Lucida Console;" vertex="1" parent="1">
          <mxGeometry x="315" y="610" width="700" height="60" as="geometry" />
        </mxCell>
      </root>
    </mxGraphModel>
  </diagram>
</mxfile>
